<svg xmlns="http://www.w3.org/2000/svg" viewBox="0 0 880 256" width="880" height="256" role="img" aria-labelledby="title-opt3_tech_azure">
  <title id="title-opt3_tech_azure">OXONOM edu. — Opt 3 · Electric Azure Accent (edu.)</title>
  <!-- Symbol -->
  <g id="symbol" transform="translate(24, 28) scale(0.78125)" fill="#000000">
    <path d="M 118 30 A 102 102 0 0 0 32 116 L 76 116 A 58 58 0 0 1 118 74 Z" />
    <!-- Top-Right Arch Segment -->
    <path d="M 138 30 A 102 102 0 0 1 224 116 L 180 116 A 58 58 0 0 0 138 74 Z" />
    <!-- Bottom-Left Folio (Book Page) -->
    <path d="M 32 140 A 102 102 0 0 0 118 226 L 118 182 A 58 58 0 0 1 76 140 Z" />
    <!-- Bottom-Right Folio (Book Page) -->
    <path d="M 224 140 A 102 102 0 0 1 138 226 L 138 182 A 58 58 0 0 0 180 140 Z" />
    <!-- Central Academic Mortarboard Diamond -->
    <polygon points="128,104 152,128 128,152 104,128" />
  
  </g>
  <!-- Wordmark -->
  <g id="wordmark">
    <path fill="#000000" fill-rule="evenodd" d="M 278 96 A 32 32 0 1 1 277.9 96 Z M 278 111.5 A 16.5 16.5 0 1 0 278.1 111.5 Z" />
    <polygon fill="#000000" points="
      319,96 336,96 348,113 360,96 377,96 
      357,128 377,160 360,160 348,143 336,160 319,160 
      339,128" />
    <path fill="#000000" fill-rule="evenodd" d="M 418 96 A 32 32 0 1 1 417.9 96 Z M 418 111.5 A 16.5 16.5 0 1 0 418.1 111.5 Z" />
    <polygon fill="#000000" points="
      459,96 474.5,96 499.5,142 499.5,96 515,96 
      515,160 499.5,160 474.5,114 474.5,160 459,160" />
    <path fill="#000000" fill-rule="evenodd" d="M 556 96 A 32 32 0 1 1 555.9 96 Z M 556 111.5 A 16.5 16.5 0 1 0 556.1 111.5 Z" />
    <polygon fill="#000000" points="
      597,96 612.5,96 631,136 649.5,96 665,96 
      665,160 649.5,160 649.5,120 635,148 627,148 612.5,120 612.5,160 597,160" />
    <g transform="translate(689, 0) skewX(-12)">
      <path fill="#2563eb" fill-rule="evenodd" d="
      M 22 114 C 36 114 44 123 44 136 C 44 138 44 140 43 140 H 12 C 13 147 18 151 26 151 C 33 151 38 148 41 143 L 48 150 C 43 158 35 161 25 161 C 11 161 0 150 0 137 C 0 124 10 114 22 114 Z
      M 12 130 H 32 C 32 124 28 122 22 122 C 16 122 13 125 12 130 Z" /><path fill="#2563eb" fill-rule="evenodd" d="
      M 80 96 H 92 V 160 H 80 V 153 C 76 158 70 161 64 161 C 55 161 50 151 50 137 C 50 124 55 114 65 114 C 71 114 76 117 80 122 Z
      M 71 123 C 64 123 61 129 61 137 C 61 145 65 151 71 151 C 77 151 81 145 81 137 C 81 129 77 123 71 123 Z" /><path fill="#2563eb" fill-rule="evenodd" d="
      M 98 114 H 110 V 144 C 110 150 114 152 119 152 C 124 152 128 149 128 144 V 114 H 140 V 160 H 129 V 153 C 126 158 120 161 114 161 C 103 161 98 151 98 140 Z" /><circle cx="154" cy="154" r="6.5" fill="#2563eb" />
    </g>
  </g>
</svg>