<svg xmlns="http://www.w3.org/2000/svg" viewBox="0 0 398 314" width="398" height="314" role="img" aria-labelledby="title-edu">
  <title id="title-edu">edu Ribbon Ligature</title>
  <path fill="#000000" fill-rule="evenodd" d="M 263.0 157.0 L 262.0 160.0 L 261.0 160.0 L 261.0 161.0 L 256.0 165.0 L 256.0 167.0 L 252.0 170.0 L 252.0 172.0 L 247.0 176.0 L 247.0 178.0 L 242.0 182.0 L 242.0 184.0 L 240.0 184.0 L 240.0 186.0 L 238.0 186.0 L 238.0 174.0 L 237.0 174.0 L 236.0 168.0 L 235.0 168.0 L 234.0 164.0 L 232.0 163.0 L 232.0 161.0 L 231.0 161.0 L 231.0 160.0 L 230.0 160.0 L 225.0 154.0 L 223.0 154.0 L 223.0 153.0 L 221.0 153.0 L 221.0 152.0 L 219.0 152.0 L 219.0 151.0 L 216.0 151.0 L 216.0 150.0 L 208.0 150.0 L 208.0 149.0 L 206.0 149.0 L 206.0 150.0 L 199.0 150.0 L 199.0 151.0 L 196.0 151.0 L 196.0 152.0 L 190.0 154.0 L 189.0 156.0 L 187.0 156.0 L 186.0 158.0 L 184.0 158.0 L 184.0 159.0 L 183.0 159.0 L 183.0 160.0 L 182.0 160.0 L 182.0 161.0 L 181.0 161.0 L 181.0 162.0 L 180.0 162.0 L 180.0 163.0 L 179.0 163.0 L 179.0 164.0 L 178.0 164.0 L 178.0 165.0 L 177.0 165.0 L 177.0 166.0 L 176.0 166.0 L 176.0 167.0 L 175.0 167.0 L 175.0 168.0 L 174.0 168.0 L 174.0 169.0 L 173.0 169.0 L 173.0 170.0 L 172.0 170.0 L 172.0 171.0 L 166.0 176.0 L 166.0 178.0 L 165.0 178.0 L 165.0 179.0 L 160.0 183.0 L 160.0 185.0 L 154.0 190.0 L 154.0 192.0 L 150.0 195.0 L 150.0 197.0 L 144.0 202.0 L 144.0 204.0 L 142.0 204.0 L 142.0 206.0 L 141.0 206.0 L 141.0 207.0 L 140.0 207.0 L 140.0 208.0 L 139.0 208.0 L 139.0 209.0 L 138.0 209.0 L 138.0 210.0 L 137.0 210.0 L 137.0 211.0 L 136.0 211.0 L 136.0 212.0 L 135.0 212.0 L 130.0 218.0 L 128.0 218.0 L 125.0 222.0 L 123.0 222.0 L 120.0 226.0 L 114.0 228.0 L 113.0 230.0 L 110.0 230.0 L 109.0 232.0 L 105.0 232.0 L 105.0 233.0 L 103.0 233.0 L 103.0 234.0 L 96.0 234.0 L 96.0 235.0 L 80.0 235.0 L 80.0 234.0 L 74.0 234.0 L 74.0 233.0 L 68.0 232.0 L 68.0 231.0 L 63.0 230.0 L 62.0 228.0 L 56.0 226.0 L 53.0 222.0 L 51.0 222.0 L 51.0 221.0 L 46.0 217.0 L 46.0 215.0 L 45.0 215.0 L 45.0 214.0 L 42.0 212.0 L 42.0 210.0 L 40.0 209.0 L 40.0 206.0 L 38.0 205.0 L 38.0 203.0 L 37.0 203.0 L 37.0 201.0 L 36.0 201.0 L 36.0 197.0 L 35.0 197.0 L 35.0 195.0 L 34.0 195.0 L 33.0 184.0 L 32.0 184.0 L 32.0 176.0 L 33.0 176.0 L 34.0 165.0 L 35.0 165.0 L 36.0 159.0 L 37.0 159.0 L 37.0 157.0 L 38.0 157.0 L 38.0 154.0 L 40.0 153.0 L 40.0 151.0 L 42.0 150.0 L 42.0 148.0 L 44.0 147.0 L 44.0 145.0 L 45.0 145.0 L 45.0 144.0 L 46.0 144.0 L 46.0 143.0 L 47.0 143.0 L 47.0 142.0 L 48.0 142.0 L 53.0 136.0 L 55.0 136.0 L 57.0 133.0 L 61.0 132.0 L 62.0 130.0 L 65.0 130.0 L 66.0 128.0 L 72.0 127.0 L 72.0 126.0 L 77.0 126.0 L 77.0 125.0 L 81.0 125.0 L 81.0 124.0 L 95.0 124.0 L 95.0 125.0 L 105.0 126.0 L 105.0 127.0 L 107.0 127.0 L 107.0 128.0 L 110.0 128.0 L 110.0 129.0 L 112.0 129.0 L 112.0 130.0 L 118.0 132.0 L 120.0 135.0 L 122.0 135.0 L 122.0 136.0 L 123.0 136.0 L 123.0 137.0 L 124.0 137.0 L 124.0 138.0 L 125.0 138.0 L 125.0 139.0 L 126.0 139.0 L 126.0 140.0 L 132.0 145.0 L 132.0 147.0 L 133.0 147.0 L 134.0 150.0 L 135.0 150.0 L 135.0 152.0 L 134.0 152.0 L 134.0 153.0 L 133.0 153.0 L 133.0 154.0 L 132.0 154.0 L 132.0 155.0 L 131.0 155.0 L 131.0 156.0 L 130.0 156.0 L 130.0 157.0 L 129.0 157.0 L 129.0 158.0 L 128.0 158.0 L 128.0 159.0 L 127.0 159.0 L 127.0 160.0 L 126.0 160.0 L 126.0 161.0 L 125.0 161.0 L 125.0 162.0 L 124.0 162.0 L 124.0 163.0 L 123.0 163.0 L 123.0 164.0 L 122.0 164.0 L 122.0 165.0 L 121.0 165.0 L 121.0 166.0 L 120.0 166.0 L 120.0 167.0 L 119.0 167.0 L 119.0 168.0 L 118.0 168.0 L 118.0 169.0 L 117.0 169.0 L 117.0 170.0 L 116.0 170.0 L 116.0 171.0 L 115.0 171.0 L 115.0 172.0 L 114.0 172.0 L 114.0 173.0 L 113.0 173.0 L 113.0 174.0 L 112.0 174.0 L 112.0 175.0 L 111.0 175.0 L 111.0 176.0 L 110.0 176.0 L 110.0 177.0 L 109.0 177.0 L 109.0 178.0 L 108.0 178.0 L 108.0 179.0 L 107.0 179.0 L 107.0 180.0 L 106.0 180.0 L 106.0 181.0 L 105.0 181.0 L 105.0 182.0 L 104.0 182.0 L 104.0 183.0 L 103.0 183.0 L 103.0 184.0 L 102.0 184.0 L 102.0 185.0 L 101.0 185.0 L 101.0 186.0 L 100.0 186.0 L 100.0 187.0 L 99.0 187.0 L 99.0 188.0 L 98.0 188.0 L 98.0 189.0 L 97.0 189.0 L 97.0 190.0 L 96.0 190.0 L 96.0 191.0 L 95.0 191.0 L 95.0 192.0 L 94.0 192.0 L 94.0 193.0 L 93.0 193.0 L 93.0 194.0 L 92.0 194.0 L 92.0 195.0 L 91.0 195.0 L 91.0 196.0 L 90.0 196.0 L 90.0 197.0 L 89.0 197.0 L 89.0 198.0 L 88.0 198.0 L 88.0 199.0 L 87.0 199.0 L 87.0 200.0 L 86.0 200.0 L 86.0 201.0 L 85.0 201.0 L 85.0 202.0 L 79.0 207.0 L 79.0 209.0 L 81.0 209.0 L 81.0 210.0 L 95.0 210.0 L 95.0 209.0 L 101.0 208.0 L 102.0 206.0 L 105.0 206.0 L 105.0 205.0 L 108.0 204.0 L 110.0 201.0 L 112.0 201.0 L 112.0 200.0 L 113.0 200.0 L 113.0 199.0 L 114.0 199.0 L 114.0 198.0 L 115.0 198.0 L 115.0 197.0 L 116.0 197.0 L 116.0 196.0 L 117.0 196.0 L 117.0 195.0 L 118.0 195.0 L 118.0 194.0 L 119.0 194.0 L 119.0 193.0 L 120.0 193.0 L 120.0 192.0 L 126.0 187.0 L 126.0 185.0 L 132.0 180.0 L 132.0 178.0 L 133.0 178.0 L 133.0 177.0 L 137.0 174.0 L 137.0 172.0 L 142.0 168.0 L 142.0 166.0 L 146.0 163.0 L 146.0 161.0 L 147.0 161.0 L 147.0 160.0 L 148.0 160.0 L 148.0 159.0 L 154.0 154.0 L 154.0 152.0 L 156.0 152.0 L 156.0 150.0 L 158.0 150.0 L 158.0 148.0 L 160.0 148.0 L 160.0 146.0 L 162.0 146.0 L 162.0 144.0 L 164.0 144.0 L 164.0 143.0 L 165.0 143.0 L 168.0 139.0 L 170.0 139.0 L 172.0 136.0 L 174.0 136.0 L 175.0 134.0 L 177.0 134.0 L 178.0 132.0 L 180.0 132.0 L 180.0 131.0 L 182.0 131.0 L 182.0 130.0 L 184.0 130.0 L 184.0 129.0 L 186.0 129.0 L 186.0 128.0 L 189.0 128.0 L 189.0 127.0 L 191.0 127.0 L 191.0 126.0 L 201.0 125.0 L 201.0 124.0 L 214.0 124.0 L 214.0 125.0 L 224.0 126.0 L 224.0 127.0 L 226.0 127.0 L 226.0 128.0 L 229.0 128.0 L 229.0 129.0 L 231.0 129.0 L 231.0 130.0 L 234.0 130.0 L 235.0 132.0 L 238.0 132.0 L 238.0 62.0 L 241.0 62.0 L 244.0 66.0 L 246.0 66.0 L 251.0 72.0 L 253.0 72.0 L 253.0 73.0 L 254.0 73.0 L 258.0 78.0 L 260.0 78.0 L 260.0 79.0 L 262.0 80.0 L 262.0 82.0 L 263.0 82.0 L 263.0 156.0 Z M 77.0 174.0 L 77.0 173.0 L 78.0 173.0 L 78.0 172.0 L 79.0 172.0 L 79.0 171.0 L 80.0 171.0 L 80.0 170.0 L 81.0 170.0 L 81.0 169.0 L 82.0 169.0 L 82.0 168.0 L 83.0 168.0 L 83.0 167.0 L 84.0 167.0 L 84.0 166.0 L 85.0 166.0 L 85.0 165.0 L 86.0 165.0 L 86.0 164.0 L 87.0 164.0 L 87.0 163.0 L 88.0 163.0 L 88.0 162.0 L 89.0 162.0 L 89.0 161.0 L 90.0 161.0 L 90.0 160.0 L 91.0 160.0 L 91.0 159.0 L 92.0 159.0 L 92.0 158.0 L 98.0 153.0 L 97.0 150.0 L 79.0 150.0 L 79.0 151.0 L 77.0 151.0 L 77.0 152.0 L 74.0 152.0 L 73.0 154.0 L 71.0 154.0 L 70.0 156.0 L 68.0 156.0 L 68.0 157.0 L 64.0 160.0 L 64.0 162.0 L 62.0 163.0 L 62.0 165.0 L 61.0 165.0 L 61.0 167.0 L 60.0 167.0 L 60.0 170.0 L 59.0 170.0 L 59.0 172.0 L 58.0 172.0 L 58.0 187.0 L 59.0 187.0 L 59.0 189.0 L 61.0 190.0 L 61.0 189.0 L 62.0 189.0 L 62.0 188.0 L 63.0 188.0 L 63.0 187.0 L 64.0 187.0 L 64.0 186.0 L 65.0 186.0 L 65.0 185.0 L 66.0 185.0 L 66.0 184.0 L 67.0 184.0 L 67.0 183.0 L 68.0 183.0 L 68.0 182.0 L 69.0 182.0 L 69.0 181.0 L 70.0 181.0 L 70.0 180.0 L 71.0 180.0 L 76.0 174.0 Z M 272.0 132.0 L 272.0 124.0 L 296.0 124.0 L 296.0 166.0 L 295.0 166.0 L 295.0 167.0 L 294.0 167.0 L 294.0 168.0 L 288.0 173.0 L 288.0 175.0 L 282.0 180.0 L 282.0 182.0 L 280.0 182.0 L 280.0 184.0 L 276.0 187.0 L 276.0 189.0 L 272.0 192.0 L 272.0 194.0 L 270.0 194.0 L 270.0 196.0 L 266.0 199.0 L 266.0 201.0 L 265.0 201.0 L 265.0 202.0 L 264.0 202.0 L 264.0 203.0 L 263.0 203.0 L 263.0 204.0 L 262.0 204.0 L 262.0 205.0 L 261.0 205.0 L 261.0 206.0 L 260.0 206.0 L 260.0 207.0 L 259.0 207.0 L 259.0 208.0 L 258.0 208.0 L 258.0 209.0 L 257.0 209.0 L 257.0 210.0 L 256.0 210.0 L 256.0 211.0 L 255.0 211.0 L 255.0 212.0 L 254.0 212.0 L 254.0 213.0 L 253.0 213.0 L 253.0 214.0 L 252.0 214.0 L 247.0 220.0 L 245.0 220.0 L 242.0 224.0 L 240.0 224.0 L 240.0 225.0 L 237.0 226.0 L 236.0 228.0 L 234.0 228.0 L 234.0 229.0 L 232.0 229.0 L 232.0 230.0 L 230.0 230.0 L 230.0 231.0 L 228.0 231.0 L 228.0 232.0 L 224.0 232.0 L 224.0 233.0 L 222.0 233.0 L 222.0 234.0 L 216.0 234.0 L 216.0 235.0 L 199.0 235.0 L 199.0 234.0 L 193.0 234.0 L 193.0 233.0 L 191.0 233.0 L 191.0 232.0 L 187.0 232.0 L 187.0 231.0 L 185.0 231.0 L 185.0 230.0 L 179.0 228.0 L 179.0 227.0 L 176.0 226.0 L 175.0 224.0 L 173.0 224.0 L 173.0 223.0 L 172.0 223.0 L 172.0 222.0 L 171.0 222.0 L 171.0 221.0 L 170.0 221.0 L 170.0 220.0 L 169.0 220.0 L 169.0 219.0 L 163.0 214.0 L 163.0 212.0 L 161.0 211.0 L 161.0 209.0 L 160.0 209.0 L 160.0 207.0 L 158.0 206.0 L 158.0 204.0 L 157.0 204.0 L 157.0 202.0 L 156.0 202.0 L 156.0 199.0 L 155.0 199.0 L 156.0 195.0 L 162.0 190.0 L 162.0 188.0 L 163.0 188.0 L 163.0 187.0 L 167.0 184.0 L 167.0 182.0 L 168.0 182.0 L 168.0 181.0 L 174.0 176.0 L 174.0 174.0 L 177.0 173.0 L 177.0 184.0 L 178.0 184.0 L 178.0 189.0 L 179.0 189.0 L 179.0 191.0 L 180.0 191.0 L 180.0 194.0 L 182.0 195.0 L 182.0 197.0 L 184.0 198.0 L 184.0 200.0 L 185.0 200.0 L 188.0 204.0 L 190.0 204.0 L 191.0 206.0 L 193.0 206.0 L 193.0 207.0 L 195.0 207.0 L 195.0 208.0 L 201.0 209.0 L 201.0 210.0 L 215.0 210.0 L 215.0 209.0 L 217.0 209.0 L 217.0 208.0 L 220.0 208.0 L 220.0 207.0 L 224.0 206.0 L 225.0 204.0 L 227.0 204.0 L 228.0 202.0 L 230.0 202.0 L 230.0 201.0 L 231.0 201.0 L 236.0 195.0 L 238.0 195.0 L 238.0 194.0 L 240.0 193.0 L 240.0 191.0 L 241.0 191.0 L 241.0 190.0 L 242.0 190.0 L 242.0 189.0 L 248.0 184.0 L 248.0 182.0 L 250.0 182.0 L 250.0 180.0 L 253.0 178.0 L 253.0 176.0 L 258.0 172.0 L 258.0 170.0 L 263.0 166.0 L 263.0 164.0 L 264.0 164.0 L 264.0 163.0 L 268.0 160.0 L 268.0 158.0 L 270.0 158.0 L 270.0 156.0 L 272.0 155.0 L 272.0 133.0 Z M 306.0 201.0 L 309.0 205.0 L 313.0 206.0 L 314.0 208.0 L 320.0 209.0 L 320.0 210.0 L 334.0 210.0 L 334.0 209.0 L 336.0 209.0 L 336.0 208.0 L 340.0 208.0 L 341.0 206.0 L 344.0 206.0 L 345.0 204.0 L 347.0 204.0 L 350.0 200.0 L 352.0 200.0 L 352.0 199.0 L 357.0 195.0 L 357.0 193.0 L 358.0 193.0 L 358.0 124.0 L 382.0 124.0 L 382.0 235.0 L 358.0 235.0 L 358.0 228.0 L 357.0 228.0 L 357.0 227.0 L 356.0 227.0 L 356.0 228.0 L 353.0 228.0 L 352.0 230.0 L 349.0 230.0 L 349.0 231.0 L 347.0 231.0 L 347.0 232.0 L 344.0 232.0 L 344.0 233.0 L 341.0 233.0 L 341.0 234.0 L 335.0 234.0 L 335.0 235.0 L 319.0 235.0 L 319.0 234.0 L 312.0 234.0 L 312.0 233.0 L 310.0 233.0 L 310.0 232.0 L 306.0 232.0 L 306.0 231.0 L 304.0 231.0 L 304.0 230.0 L 298.0 228.0 L 297.0 226.0 L 295.0 226.0 L 292.0 222.0 L 290.0 222.0 L 290.0 221.0 L 284.0 216.0 L 284.0 214.0 L 281.0 212.0 L 280.0 208.0 L 278.0 207.0 L 278.0 205.0 L 277.0 205.0 L 277.0 203.0 L 276.0 203.0 L 276.0 201.0 L 275.0 201.0 L 275.0 197.0 L 277.0 196.0 L 277.0 194.0 L 282.0 190.0 L 282.0 188.0 L 283.0 188.0 L 283.0 187.0 L 286.0 185.0 L 286.0 183.0 L 292.0 178.0 L 292.0 176.0 L 294.0 176.0 L 294.0 174.0 L 296.0 174.0 L 296.0 183.0 L 297.0 183.0 L 298.0 191.0 L 299.0 191.0 L 300.0 195.0 L 302.0 196.0 L 302.0 198.0 L 303.0 198.0 L 305.0 201.0 Z M 247.0 226.0 L 247.0 225.0 L 248.0 225.0 L 250.0 222.0 L 252.0 222.0 L 252.0 221.0 L 253.0 221.0 L 253.0 220.0 L 254.0 220.0 L 254.0 219.0 L 255.0 219.0 L 255.0 218.0 L 256.0 218.0 L 261.0 212.0 L 263.0 213.0 L 263.0 234.0 L 262.0 234.0 L 262.0 235.0 L 238.0 235.0 L 238.0 232.0 L 246.0 226.0 Z" />
</svg>